<svg xmlns="http://www.w3.org/2000/svg" xmlns:xlink="http://www.w3.org/1999/xlink" version="1.1" viewBox="0 0 846.66 846.66">
  <g id="Layer_x0020_1">
    <path fill="black" d="M303.9 486.5l94.85 0 0 -131.89 -188.9 0 -155.15 24.19 28.81 107.7 36.17 0c9.66,-42.96 47.94,-73.62 92.11,-73.62 44.16,0 82.45,30.66 92.11,73.62zm136.43 0l94.85 0c9.66,-42.96 47.94,-73.62 92.11,-73.62 44.17,0 82.45,30.66 92.11,73.62l77.71 0 0 -65.86c-53.26,-56.3 -110.36,-97.16 -171.54,-121.46l-70.28 50.83c-3.56,2.87 -8.1,4.6 -13.04,4.6l-101.92 0 0 131.89zm-401.55 128.84c-27.35,0 -27.35,-41.57 0,-41.57l105.98 0c-12.26,-12.37 -21.13,-28.1 -25.08,-45.7l-52.1 -0.02c-9.18,0 -17.58,-6.12 -20.06,-15.41l-38.84 -145.4c-3.16,-11.88 4.64,-23.92 16.84,-25.81l176.35 -27.49c125.25,-68.49 239.87,-93.36 344.73,-78.46 105.77,15.03 200.64,70.32 285.6,161.92 4,3.79 6.49,9.15 6.49,15.09l0 94.79c0,11.48 -9.31,20.79 -20.79,20.79l-98.5 0c-3.95,17.6 -12.82,33.33 -25.08,45.7l105.98 0c27.34,0 27.34,41.57 0,41.57l-761.52 0zm240.03 -41.57l281.45 0c-12.26,-12.37 -21.12,-28.1 -25.08,-45.7l-231.28 0c-3.96,17.6 -12.82,33.33 -25.09,45.7zm297.65 -290.3c-11.76,-2.88 -23.66,-5.19 -35.7,-6.9 -74.15,-10.54 -154.35,1.07 -241.05,36.47l235.86 0 40.89 -29.57zm-364.67 170.98c-29.18,0 -52.84,23.65 -52.84,52.83 0,29.18 23.66,52.83 52.84,52.83 29.18,0 52.83,-23.65 52.83,-52.83 0,-29.18 -23.65,-52.83 -52.83,-52.83zm415.5 0c-29.18,0 -52.83,23.65 -52.83,52.83 0,29.18 23.65,52.83 52.83,52.83 29.18,0 52.83,-23.65 52.83,-52.83 0,-29.18 -23.65,-52.83 -52.83,-52.83z"/>
  </g>
</svg>
