<svg width="33" height="33" viewBox="0 0 33 33" fill="none" xmlns="http://www.w3.org/2000/svg">
<path d="M17.875 12.375C17.875 12.7397 17.7301 13.0894 17.4723 13.3473C17.2144 13.6051 16.8647 13.75 16.5 13.75C16.1353 13.75 15.7856 13.6051 15.5277 13.3473C15.2699 13.0894 15.125 12.7397 15.125 12.375C15.125 12.0103 15.2699 11.6606 15.5277 11.4027C15.7856 11.1449 16.1353 11 16.5 11C16.8647 11 17.2144 11.1449 17.4723 11.4027C17.7301 11.6606 17.875 12.0103 17.875 12.375Z" stroke="#1A84E3" stroke-width="3" stroke-linejoin="round"/>
<path d="M24.0625 13.0625C24.0625 17.2398 21.3125 22 16.5 27.5C11.6875 22 8.9375 17.2398 8.9375 13.0625C8.9375 11.0568 9.73426 9.13325 11.1525 7.71501C12.5707 6.29676 14.4943 5.5 16.5 5.5C18.5057 5.5 20.4293 6.29676 21.8475 7.71501C23.2657 9.13325 24.0625 11.0568 24.0625 13.0625Z" stroke="#1A84E3" stroke-width="3" stroke-linejoin="round"/>
</svg>
