<svg xmlns="http://www.w3.org/2000/svg" data-name="Layer 48" viewBox="-5.0 -10.0 110.0 135.0" x="0px" y="0px">
  <path stroke-width="0" d="m39.552,57.271l-8.538-22.229,4.538-1.88,8.138,21.845-3.257,1.72c-.311.165-.6.352-.881.545Z"/>
  <path stroke-width="0" d="m27.47,33.052l-8.133-19.628c-.405-.979-.405-2.057,0-3.035.405-.979,1.168-1.741,2.146-2.146l3.942-1.634c.998-.414,2.039-.61,3.06-.61,2.735,0,5.331,1.41,6.602,3.834.111.213.216.433.31.66.988,2.384.753,5.114-.628,7.304-1.024,1.624-1.218,3.505-.531,5.161l2.578,6.221c.252.61-.038,1.312-.646,1.563l-6.793,2.815s-.002,0-.003,0c-.001,0-.002.002-.003.002l-.336.139c-.609.253-1.31-.037-1.562-.646Z"/>
  <path stroke-width="0" d="m37.844,63.292c.253-1.365.905-2.605,1.891-3.593.033-.025.064-.053.094-.083.431-.432.949-.809,1.539-1.122l3.728-1.969c.05-.028.11-.054.194-.088,0,0,0,0,0,0,0,0,0,0,0,0,.018-.007.03-.013.052-.021,1.991-.871,4.332.034,5.2,1.988l4.076,10.119-18.473,4.795,1.698-10.026Z"/>
  <path stroke-width="0" d="m33.826,75.985l1.404-.364c.007-.002.014-.003.02-.005l23.683-6.147c.106-.027.215-.041.321-.041.275,0,.544.091.769.264.312.241.49.604.491.995l-.01,6.084-27.594,3.668-.007-3.26c0-.562.378-1.052.922-1.193Z"/>
  <path stroke-width="0" d="m28.377,84.162c0-.607.435-1.118,1.007-1.211l36.299-4.84c.402-.059.781.062,1.082.326s.467.629.467,1.029v7.118H28.377v-2.423Z"/>
  <polygon stroke-width="0" points="12.374 94 15.295 88.585 27.377 88.585 68.231 88.585 84.705 88.585 87.626 94 12.374 94"/>
  <text x="0.0" y="117.5" font-size="5.0" font-weight="bold" font-family="Arbeit Regular, Helvetica, Arial-Unicode, Arial, Sans-serif" fill="#000000">Created by Fahrul Oktaviana</text>
  <text x="0.0" y="122.5" font-size="5.0" font-weight="bold" font-family="Arbeit Regular, Helvetica, Arial-Unicode, Arial, Sans-serif" fill="#000000">from Noun Project</text>
</svg>
