<svg xmlns="http://www.w3.org/2000/svg" data-name="레이어 1" viewBox="0 0 100 125" x="0px" y="0px"><path d="m89.028778,33.6720581c-3.2817383,1.1397095-24.911438,9.116272-31.4066162,23.3424072-2.492981,5.4615479-2.46875,11.2576294.0726318,17.2260132.0184937.0441284.0327759.0883179.0427246.1338501.1039429.1395264.9667358,1.0578613,5.6779175,1.4735718,4.5802002.4057617,7.0946045.2121582,8.0712891.0897217.4940186-3.0525513,3.4682617-18.2924194,15.4904175-33.3208618,4.2826538-5.3526001,2.7449951-8.1210938,2.0516357-8.9447021Z"/><path d="m80.7297058,23.4216919c-2.3804932,4.043457-5.0998535,11.3587646-6.4196777,15.0882568,2.5001221-1.7633057,7.3123779-4.6008301,14.2304077-6.2623901.4257202-5.1888428.6264648-11.0283813.2477417-12.1880493-.5567017-.182251-1.4080811-.4292603-2.4018555-.4292603-.5720825,0-1.1936646.0944214-1.8323975.3168945v-2.9002686c0-.0914307-.0212402-.177002-.0518799-.2575684,2.2988281-.6976929,3.6021729-1.5882568,4.1010132-1.9884033-.1907349-1.3533325-1.3354492-6.2289429-8.008606-6.6432495-.0939331-.0057373-.1865234-.0085449-.2790527-.0085449-.9524536,0-1.7398071.3196411-2.3961792.9738159-1.8209839,1.8131714-2.6268311,6.2453003-2.2694702,12.479248.0413208.7139893.6065063.9524536.7788086,1.008728.3659058.1195679.8827515.0825806,1.2514648-.3666382,2.0643921-2.5222778,3.8775024-4.1663208,5.4159546-4.9332886v3.2411499c0,.0512085.019165.0961304.0291138.1442261-.8206177.5820923-1.6381226,1.439209-2.3953857,2.7253418Z"/><path d="m62.1412048,78.217041l-1.3568726.1950684c-5.5127563.7545776-9.1789551-1.1062622-11.3686523-2.2210693-.5325317-.2705078-.9923706-.5054321-1.2885132-.5951538-.3787231-.1138916-.9795532-.4143066-1.8893433-.8684692-3.3344116-1.6643677-10.1328735-5.0599976-17.4979248-5.0599976-4.3780518,0-8.9554443,1.2001953-13.1256104,4.6741943-4.5275269,3.7729492-6.3057861,7.4689941-5.1411743,10.6866455,1.456543,4.0206909,7.4576416,6.8226318,11.9324951,6.8226318h45.6000366c.8243408-.4726562,4.7894897-3.0581665,5.0401001-9.1860352.0740356-1.788208-.3203735-3.0454102-1.203125-3.8413086-1.9391479-1.7454834-6.0623169-1.1389771-9.701416-.6065063Z"/><text x="0" y="115" fill="#000000" font-size="5px" font-weight="bold" font-family="'Helvetica Neue', Helvetica, Arial-Unicode, Arial, Sans-serif">Created by MingNae</text><text x="0" y="120" fill="#000000" font-size="5px" font-weight="bold" font-family="'Helvetica Neue', Helvetica, Arial-Unicode, Arial, Sans-serif">from the Noun Project</text></svg>