<svg xmlns="http://www.w3.org/2000/svg" xmlns:xlink="http://www.w3.org/1999/xlink" version="1.1" x="0px" y="0px" viewBox="0 0 512 640" xml:space="preserve">
  <g>
    <g>
      <g>
        <path d="M211.08,243.5h-91.742c-1.457,13.103-1.044,26.519,1.492,40h95.273C207.908,271.28,206.509,256.382,211.08,243.5z"/>
        <path d="M283.5,390.136c48.717-11.098,87.488-48.622,100.389-96.636H283.5V390.136z M338.5,318.5c0-2.762,2.238-5,5-5     c2.761,0,5,2.238,5,5v10c0,2.762-2.239,5-5,5c-2.762,0-5-2.238-5-5V318.5z M308.5,318.5c0-2.762,2.238-5,5-5c2.761,0,5,2.238,5,5     v10c0,2.762-2.239,5-5,5c-2.762,0-5-2.238-5-5V318.5z"/>
        <path d="M233.5,298.795v93.222c13.023,1.942,26.501,2.013,40,0v-93.222C261.155,304.947,246.338,305.193,233.5,298.795z"/>
        <path d="M253.5,223.5c-19.299,0-35,15.701-35,35s15.701,35,35,35s35-15.701,35-35S272.799,223.5,253.5,223.5z"/>
        <path d="M433.5,83.5c13.785,0,25-11.215,25-25s-11.215-25-25-25c-13.785,0-25,11.215-25,25S419.715,83.5,433.5,83.5z"/>
        <path d="M53.5,413.5c-8.271,0-15,6.728-15,15s6.729,15,15,15c8.271,0,15-6.728,15-15S61.771,413.5,53.5,413.5z"/>
        <path d="M253.5,213.5c15.568,0,29.313,7.949,37.395,20h95.275c-11.759-62.536-66.771-110-132.67-110     c-65.899,0-120.912,47.464-132.67,110h95.273C224.186,221.449,237.931,213.5,253.5,213.5z"/>
        <path d="M223.5,390.136V293.5H123.11C136.011,341.514,174.782,379.038,223.5,390.136z M188.5,318.5c0-2.762,2.238-5,5-5     c2.761,0,5,2.238,5,5v10c0,2.762-2.239,5-5,5c-2.762,0-5-2.238-5-5V318.5z M158.5,318.5c0-2.762,2.238-5,5-5c2.761,0,5,2.238,5,5     v10c0,2.762-2.239,5-5,5c-2.762,0-5-2.238-5-5V318.5z"/>
        <path d="M295.92,243.5c4.693,13.241,2.973,28.075-5.024,40h95.274c1.523-8.104,2.33-16.459,2.33-25c0-5.07-0.291-10.073-0.838-15     H295.92z"/>
        <path d="M253.5,53.5c-113.038,0-205,91.962-205,205c0,113.037,91.962,205,205,205c113.037,0,205-91.963,205-205     C458.5,145.462,366.537,53.5,253.5,53.5z M395.178,289.382c-0.017,0.097-0.039,0.191-0.063,0.286     c-12.279,55.839-57.202,100.799-115.724,111.514c-16.667,3.018-34.302,3.165-51.784,0C156.562,387.987,108.5,326.51,108.5,258.5     c0-79.953,65.047-145,145-145s145,65.047,145,145C398.5,269.096,397.346,279.426,395.178,289.382z"/>
        <circle cx="53.5" cy="98.5" r="10"/>
        <circle cx="93.5" cy="48.5" r="10"/>
        <circle cx="463.5" cy="388.5" r="10"/>
        <circle cx="463.5" cy="128.5" r="10"/>
        <circle cx="413.5" cy="458.5" r="10"/>
        <circle cx="123.5" cy="468.5" r="10"/>
      </g>
    </g>
  </g>
</svg>
