<svg xmlns="http://www.w3.org/2000/svg" xmlns:xlink="http://www.w3.org/1999/xlink" viewBox="0 0 100 96.25" version="1.1" x="0px" y="0px"><title>car warning service problem auto vehicle error check danger</title><desc>Created with Sketch.</desc><g stroke="none" stroke-width="1" fill="none" fill-rule="evenodd"><g transform="translate(-6262.000000, -8785.000000)" fill="#000000"><path d="M6362,8815.14358 C6362,8818.21601 6359.81122,8820.70771 6357.11953,8820.70771 L6355.92347,8820.70771 C6355.92347,8820.71647 6355.92784,8820.72085 6355.92784,8820.72962 C6356.57726,8822.65153 6356.94023,8824.74876 6356.94023,8826.94899 L6356.94023,8833.4686 C6356.94023,8839.84356 6355.38994,8845.34633 6351.88484,8848.02649 L6351.88484,8855.18819 C6351.88484,8858.78438 6349.32216,8861.69903 6346.17128,8861.69903 L6340.93222,8861.69903 C6337.78134,8861.69903 6335.22085,8858.78 6335.22085,8855.18819 L6335.22085,8849.75555 L6288.79227,8849.75555 L6288.79227,8855.18819 C6288.79227,8858.78438 6286.23178,8861.69903 6283.07872,8861.69903 L6277.83528,8861.69903 C6274.68222,8861.69903 6272.12172,8858.78 6272.12172,8855.18819 L6272.12172,8848.02649 C6268.62099,8845.34633 6267.0707,8839.84795 6267.0707,8833.4686 L6267.0707,8826.94899 C6267.0707,8824.75315 6267.4293,8822.65592 6268.07216,8820.73839 C6268.07216,8820.72962 6268.07872,8820.72085 6268.07872,8820.70771 L6266.88047,8820.70771 C6264.1844,8820.70771 6262,8818.21601 6262,8815.14796 C6262,8812.07115 6264.1844,8809.57945 6266.88047,8809.57945 L6271.64067,8809.57945 C6271.81341,8809.57945 6271.97303,8809.6189 6272.13703,8809.63643 L6278.33601,8793.78339 C6280.29519,8788.77589 6285.01822,8785 6289.32143,8785 L6296.15671,8785 L6327.84329,8785 L6334.67857,8785 C6338.90962,8785 6343.74417,8788.85698 6345.66399,8793.779 L6351.86516,8809.63643 C6352.02697,8809.61671 6352.1844,8809.57945 6352.35714,8809.57945 L6357.11953,8809.57945 C6359.81122,8809.57507 6362,8812.06457 6362,8815.14358 Z M6328.87832,8828.90219 L6313.30824,8801.73852 C6313.04525,8801.28162 6312.56131,8801 6312.03827,8801 C6311.51327,8801 6311.03031,8801.28162 6310.76732,8801.73852 L6295.19724,8828.90219 C6294.93425,8829.35909 6294.93425,8829.92233 6295.19724,8830.37923 C6295.46023,8830.83612 6295.94319,8831.11774 6296.46721,8831.11774 L6327.60835,8831.11774 C6328.13139,8831.11774 6328.61631,8830.83612 6328.8793,8830.37923 C6329.14033,8829.92233 6329.14033,8829.35909 6328.87832,8828.90219 Z M6311.83168,8808.18192 C6313.17074,8808.18192 6314.25626,8809.26744 6314.25626,8810.6065 C6314.25626,8810.69688 6314.2512,8810.78718 6314.24112,8810.877 L6313.15819,8820.52302 C6313.08237,8821.19836 6312.51127,8821.70894 6311.83168,8821.70894 C6311.1521,8821.70894 6310.58099,8821.19836 6310.50517,8820.52302 L6309.42224,8810.877 C6309.27285,8809.5463 6310.23049,8808.34645 6311.56118,8808.19706 C6311.651,8808.18698 6311.7413,8808.18192 6311.83168,8808.18192 Z M6311.74234,8823.31933 C6313.38232,8823.31933 6314.71178,8824.64879 6314.71178,8826.28877 L6314.71178,8826.33153 C6314.71178,8827.9715 6313.38232,8829.30096 6311.74234,8829.30096 C6310.10236,8829.30096 6308.7729,8827.9715 6308.7729,8826.33153 L6308.7729,8826.28877 C6308.7729,8824.64879 6310.10236,8823.31933 6311.74234,8823.31933 Z"/></g></g><text x="0" y="92" fill="#000000" font-size="5px" font-weight="bold" font-family="'Helvetica Neue', Helvetica, Arial-Unicode, Arial, Sans-serif">Created by Silviu Ojog</text><text x="0" y="97" fill="#000000" font-size="5px" font-weight="bold" font-family="'Helvetica Neue', Helvetica, Arial-Unicode, Arial, Sans-serif">from the Noun Project</text></svg>