<svg xmlns="http://www.w3.org/2000/svg" version="1.1" width="50" height="50" viewBox="-5.0 -10.0 110.0 135.0">
  <path d="m46.09 25.32s-2.8594 0.61719-4.4297 1.6289c-1.5703 1.0117-2.5547 3.3438-2.5547 3.3438l-0.20703 12.344-1.4688 1.3945 0.10156 1.0586h0.60156l0.30859-0.27734 0.41016 0.027344 0.027344 8.3047 0.042969 16.418 1.2305 4.2695 0.55859 0.85156c6.207-0.015625 12.355-0.015625 18.562 0l0.55859-0.85156 1.2305-4.2695 0.042969-16.418 0.03125-8.3047 0.42578-0.027344 0.29297 0.27734h0.61719l0.089844-1.0586-1.4609-1.3945-0.20703-12.34s-0.98047-2.332-2.5547-3.3438c-1.5703-1.0117-4.418-1.6289-4.418-1.6289-2.8008 0.070312-5.043 0.070312-7.832-0.003907zm-0.5 48.523h-2.0703l-0.58594-0.42578 0.87891-1.0117h1.8047 8.7734 1.7891l0.87891 1.0117-0.58594 0.42578h-2.0664-8.8164zm0.5-10.977v-10.535c0-2.3164 7.8359-2.3164 7.8359 0v10.535h-7.8359zm-0.085938-16.082c-1.8047 0-2.1875 0.26562-2.7148-1.2891l-1.3789-4.0195 0.19141-1.2031s3.1523-1.2031 4.9727-1.6289c1.5117-0.36719 4.3438-0.36719 5.8672 0 1.8203 0.42578 4.9609 1.6289 4.9609 1.6289l0.19141 1.2031-1.3633 4.0195c-0.54297 1.5547-0.92578 1.2891-2.7305 1.2891h-7.9961zm11.516 15.219 2.1562 1.0586v7.4531l-0.64453 1.3945-1.5117-1.5859zm-0.042969-7.5703 2.2461-0.027344v6.3672l-2.2461-0.35156zm2.1992-11.637v9.2734l-2.1562 0.79297c0.027344-3.2305 0.11719-4.1836 0.92578-7.3203zm-17.195 19.207-2.1406 1.0586v7.4531l0.63281 1.3945 1.5117-1.5859zm0.058593-7.5703-2.2578-0.027344v6.3672l2.2578-0.35156zm-2.1992-11.637v9.2734l2.1406 0.79297c-0.027344-3.2305-0.11719-4.1836-0.92578-7.3203z" fill-rule="evenodd"/>
</svg>
